:SAMPLES-PER-SECOND 30
:FULLY-SPECIFIED
:DEGREES
39
root  -3.14121 40.9949 -0.335811 16.7722 -88.1202 -15.698
RightUpLeg  2.20488 -1.2529 -0.38795
RightLeg  -5.13188 -22.0793 3.25392
RightFoot  2.12487 -0.131002 1.23023
RightToes  -3.1126e-008 1.75238e-005 3.56266e-009
Spine  11.6106 3.16514 -0.630242
Spine1  -15.2407 3.17184 -2.02307
HEad  3.80624 -3.6398 2.30002
LeftShoulder1  0.164146 2.85037 -18.5005
LeftArm  -58.2427 21.6724 -35.8302
LeftForeArm  130.718 -76.2994 -132.627
LeftHand  -0.508256 -3.42827 6.94214
RightShoulder  1.26506 1.3032 19.9785
RightArm  -6.53034 -4.08784 25.5317
RightForeArm  63.6675 79.0103 78.3562
RightHand  0.00948275 7.1058 -0.271848
LeftUpLeg  0.967885 1.78401 4.04621
LeftLeg  -2.16409 14.4534 -0.709582
LeftFoot  1.31491 0.466017 -4.26901
LeftToes  4.78049e-008 1.46235e-008 1.34219e-009
40
root  -3.13794 40.9959 -0.364718 15.8812 -87.9006 -14.7458
RightUpLeg  2.24286 -1.20808 -0.310206
RightLeg  -5.33209 -22.36 3.36201
RightFoot  2.15274 -0.126225 1.19221
RightToes  -3.1126e-008 1.75238e-005 3.56266e-009
Spine  11.5892 3.42026 -0.369067
Spine1  -15.021 3.46926 -2.54367
HEad  3.77782 -3.70551 2.43949
LeftShoulder1  0.170818 2.82793 -18.6633
LeftArm  -58.0442 22.878 -36.2231
LeftForeArm  128.851 -76.6694 -130.782
LeftHand  -0.53787 -3.67826 7.15048
RightShoulder  1.16258 0.952775 19.745
RightArm  -7.22217 -2.12021 25.9253
RightForeArm  61.9149 78.937 76.7591
RightHand  -0.0216691 7.65642 -0.561636
LeftUpLeg  0.822345 1.79077 4.11431
LeftLeg  -2.08906 14.1844 -0.6617
LeftFoot  1.31844 0.468357 -4.29005
LeftToes  4.78049e-008 1.46235e-008 1.34219e-009
41
root  -3.12839 41.0002 -0.374872 15.5428 -87.861 -14.3791
RightUpLeg  2.17886 -1.20827 -0.308037
RightLeg  -5.29802 -22.3838 3.36463
RightFoot  2.18668 -0.124424 1.18428
RightToes  -3.1126e-008 1.75238e-005 3.56266e-009
Spine  11.7021 3.62023 0.194025
Spine1  -15.1132 3.74549 -3.55475
HEad  3.51121 -3.31635 2.90722
LeftShoulder1  0.161639 2.85761 -18.3939
LeftArm  -57.5808 24.2434 -36.7407
LeftForeArm  126.318 -77.0943 -128.413
LeftHand  -0.534219 -3.35981 7.3469
RightShoulder  1.18735 1.02048 19.91
RightArm  -7.66661 0.0212831 25.7169
RightForeArm  61.0654 78.8983 76.055
RightHand  -0.0395639 7.57808 -0.722766
LeftUpLeg  0.80769 1.7425 4.09309
LeftLeg  -2.1802 14.2141 -0.637696
LeftFoot  1.39553 0.475961 -4.3927
LeftToes  4.78049e-008 1.46235e-008 1.34219e-009
42
root  -3.11359 41.0003 -0.384645 16.3995 -87.8899 -15.287
RightUpLeg  2.22642 -1.17717 -0.262107
RightLeg  -5.35078 -22.3794 3.37746
RightFoot  2.24045 -0.122168 1.16874
RightToes  -3.1126e-008 1.75238e-005 3.56266e-009
Spine  11.676 3.8397 0.548045
Spine1  -14.7859 4.02157 -4.05898
HEad  3.46434 -3.32971 2.89112
LeftShoulder1  0.173512 2.80822 -18.2906
LeftArm  -57.4907 25.9577 -37.8731
LeftForeArm  125.971 -77.2492 -127.639
LeftHand  -0.518132 -3.87747 6.75744
RightShoulder  1.28085 1.35398 20.0352
RightArm  -8.42747 2.69539 25.4367
RightForeArm  59.5104 78.8183 74.5219
RightHand  -0.0442014 7.23553 -0.7666
LeftUpLeg  0.853439 1.73512 4.11963
LeftLeg  -2.19473 14.27 -0.602106
LeftFoot  1.43522 0.476764 -4.38995
LeftToes  4.78049e-008 1.46235e-008 1.34219e-009
43
root  -3.10355 41 -0.386739 17.7573 -88.0875 -16.6074
RightUpLeg  2.17919 -1.14696 -0.261061
RightLeg  -5.40906 -22.217 3.36827
RightFoot  2.29879 -0.122482 1.18933
RightToes  -3.1126e-008 1.75238e-005 3.56266e-009
Spine  11.803 3.98287 0.96146
Spine1  -14.9248 4.21277 -4.69101
HEad  3.77225 -3.79536 2.86346
LeftShoulder1  0.104304 3.07803 -17.8423
LeftArm  -56.4714 28.099 -39.3905
LeftForeArm  125.204 -77.2821 -127.291
LeftHand  -0.56095 -3.626 7.48276
RightShoulder  1.32884 1.51312 20.1629
RightArm  -8.93959 5.89297 25.6207
RightForeArm  57.4669 78.6881 71.5331
RightHand  0.00886204 7.46723 -0.284852
LeftUpLeg  0.841532 1.69485 4.08975
LeftLeg  -2.23393 14.5421 -0.588095
LeftFoot  1.47861 0.477565 -4.38885
LeftToes  4.78049e-008 1.46235e-008 1.34219e-009
44
root  -3.09371 41.0027 -0.372106 21.5805 -88.321 -20.4537
RightUpLeg  2.25023 -1.09215 -0.229004
RightLeg  -5.59858 -22.0063 3.4019
RightFoot  2.43587 -0.118723 1.13974
RightToes  -3.1126e-008 1.75238e-005 3.56266e-009
Spine  12.1265 4.25039 1.67345
Spine1  -15.242 4.54751 -5.56739
HEad  4.3159 -4.35684 2.88811
LeftShoulder1  0.0912491 3.13077 -17.7593
LeftArm  -55.2336 30.0739 -40.9266
LeftForeArm  124.835 -77.52 -126.088
LeftHand  -0.403293 -4.0754 5.22139
RightShoulder  1.34426 1.6038 19.9774
RightArm  -9.52379 8.72874 25.9804
RightForeArm  56.2869 78.6405 71.9464
RightHand  -0.00282354 7.53963 -0.39298
LeftUpLeg  0.879924 1.69254 4.09551
LeftLeg  -2.21256 14.781 -0.556396
LeftFoot  1.44371 0.486458 -4.51659
LeftToes  4.78049e-008 1.46235e-008 1.34219e-009
45
root  -3.0966 41.0052 -0.350413 24.4812 -88.5321 -23.3983
RightUpLeg  2.3387 -1.066 -0.251094
RightLeg  -5.71669 -21.8069 3.38327
RightFoot  2.53626 -0.124023 1.22052
RightToes  -3.1126e-008 1.75238e-005 3.56266e-009
Spine  12.0585 4.43743 2.40922
Spine1  -14.9844 4.83508 -6.4719
HEad  4.08765 -4.12436 3.19413
LeftShoulder1  0.162601 2.8459 -18.074
LeftArm  -54.2329 31.8797 -41.8118
LeftForeArm  123.318 -77.9466 -123.533
LeftHand  -0.468649 -3.95435 6.08731
RightShoulder  1.30282 1.47817 19.7994
RightArm  -10.1427 12.207 26.7186
RightForeArm  54.7768 78.5252 69.8464
RightHand  0.0267232 7.67724 -0.132148
LeftUpLeg  1.01423 1.70286 4.06736
LeftLeg  -2.30945 15.0057 -0.608418
LeftFoot  1.47943 0.479991 -4.40871
LeftToes  4.78049e-008 1.46235e-008 1.34219e-009
